#!OML:ASF F:\VICON\USERDATA\INSTALL\rory3\rory3.ASF
:FULLY-SPECIFIED
:DEGREES
136
root 0.6729985620439791 17.59344310670602 28.539109777868806 2.984954111440555 -4.640194782743571 -2.2995665781285037
lfemur -15.783814260458456 3.060092775701261 -17.70382820329199
ltibia 88.50242693379809
lfoot 3.666037538854573 -6.958990337329434
ltoes -16.463418877210003
rfemur -16.86741731027943 4.008764240589554 29.653795276412172
rtibia 71.81893172612943
rfoot 1.7945899812185289 -8.606381249616629
rtoes 5.924814744121198
lowerback 14.261294686700564 1.7362557997379882 1.378604314007019
upperback -0.6569480558864542 2.481642461205607 0.045444745615408344
thorax -9.80352718795381 1.2042157785665843 -0.650348681134455
lowerneck -19.35047249472217 -4.62198891241956 -2.4209989956706366
upperneck 6.5897448340293785 -6.517657885063053 6.275019644988623
head 5.2758669380044285 -2.694387435593989 1.7321569208080658
lclavicle -1.336747555534292e-15 -2.758979314871034e-15
lhumerus -39.10256753199005 -9.724637182543573 90.51477402723272
lradius 114.69209557879934
lwrist 31.32049236638333
lhand -23.874250019389905 4.33923153491752
lfingers 7.12502
lthumb 2.0157142160347306 33.71878882628457
rclavicle -1.33674755546051e-15 -2.758979314817306e-15
rhumerus -50.04872191431962 10.923663871079668 -97.76574052654217
rradius 112.74170205275303
rwrist -21.355620971971106
rhand -18.667002413831156 37.03014263695428
rfingers 7.12502
rthumb 7.149556010186259 6.7872791462267354
137
root 0.6553695558884912 17.591811229544525 28.455105691849827 3.0522167844513706 -4.686373432740383 -2.3808765788898643
lfemur -16.540683349043345 3.353764285424821 -17.513900502016874
ltibia 89.78554307472288
lfoot 3.625127182299579 -6.517824681307962
ltoes -16.472189165283503
rfemur -16.382548234756957 4.271432206548797 29.784381229121156
rtibia 72.01298707763644
rfoot 1.863613427892628 -8.641652597649651
rtoes 6.32317414996738
lowerback 14.331426365617787 1.7511954323833865 1.39706274403146
upperback -0.69372284000611 2.50682715713755 0.10480037584261126
thorax -9.974685723961349 1.2065424471987307 -0.6175390652482144
lowerneck -19.528768760135225 -4.574788445945172 -2.4552400909685588
upperneck 6.666059349627941 -6.452806742101708 6.301534386811759
head 5.370317483459953 -2.6462414506604204 1.7387468240164616
lclavicle -1.3367475555356043e-15 -2.7589793148719867e-15
lhumerus -39.12319835612129 -9.60559020291163 90.50895908032962
lradius 115.18227818124049
lwrist 31.465066596651813
lhand -23.94626228634693 4.44497324244817
lfingers 7.12502
lthumb 1.6629987996312037 33.53608901594083
rclavicle -1.3367475554642688e-15 -2.7589793148201553e-15
rhumerus -50.18963686535092 10.862855362610455 -97.88454294639142
rradius 112.84004826665843
rwrist -21.42829099152685
rhand -18.58116651306087 36.96502731178347
rfingers 7.12502
rthumb 7.264629395884132 6.7528314578005695
138
root 0.6972928299472211 17.622394260646832 29.04954760806091 3.1362123525210794 -4.461381762904382 -2.239314113090139
lfemur -17.019445140395597 3.388744201688277 -17.776623345129163
ltibia 90.82412537419384
lfoot 3.2197879017073214 -6.477700354617314
ltoes -17.82790848218769
rfemur -15.576921890154441 3.9857368002545766 29.651481605875762
rtibia 72.05134140169538
rfoot 1.9177273700055197 -8.25924884194589
rtoes 7.499114902931931
lowerback 14.076958159506361 1.6820105905205658 1.3913902236581555
upperback -0.6677893425348944 2.398912351602874 -0.038994657538472755
thorax -9.617743376272111 1.1877763996406363 -0.6319224823296368
lowerneck -19.855417552549376 -4.519468956088847 -2.4579565240472387
upperneck 6.753903256476596 -6.367830510601207 6.3007633222646735
head 5.5000242647474815 -2.5856244230178422 1.7354596299604592
lclavicle -1.3367475555349303e-15 -2.7589793148714782e-15
lhumerus -39.18234442870204 -9.493689195530225 90.52759882378022
lradius 115.63147926643813
lwrist 31.55624109541798
lhand -24.00387193409602 4.356654604066848
lfingers 7.12502
lthumb 1.5700386189396032 33.42872801700107
rclavicle -1.3367475554692217e-15 -2.7589793148240637e-15
rhumerus -50.343441770365665 10.827021257829324 -97.969814598293
rradius 112.94265438104284
rwrist -21.38966077049352
rhand -18.47710658487651 37.035977435722074
rfingers 7.12502
rthumb 7.3766661230531385 6.799120999901393
139
root 0.6743959583907007 17.615345360747387 28.772403686967426 3.208106013900553 -4.534004949650197 -2.376900304053005
lfemur -17.70289382622148 3.608556655960092 -17.58273920335332
ltibia 91.68226037038481
lfoot 2.564945308383635 -6.539649052464043
ltoes -19.37779241594347
rfemur -15.256867259571697 4.2368303788272925 29.80123311371103
rtibia 72.2174096976833
rfoot 2.0225273049289174 -8.27541854611038
rtoes 8.899344122789813
lowerback 14.147472895040812 1.693773006227381 1.4300664664798215
upperback -0.7393138954435796 2.438704073146102 0.0456243250243229
thorax -9.892236775264879 1.1851799616028846 -0.5949331703255181
lowerneck -19.933762850150494 -4.470672454072728 -2.4498353757446507
upperneck 6.730492611141192 -6.293821359184106 6.289369948149113
head 5.573105354098258 -2.5375223912395164 1.7241712594589356
lclavicle -1.3367475555284793e-15 -2.758979314866533e-15
lhumerus -39.23401301048267 -9.367793397509399 90.40413618175444
lradius 116.00060059223408
lwrist 31.677029749307582
lhand -24.060876928612124 4.340029620710293
lfingers 7.12502
lthumb 1.5927059756958903 33.35068168248855
rclavicle -1.3367475554719872e-15 -2.7589793148263262e-15
rhumerus -50.55167884866558 10.815015501920495 -98.05273082010098
rradius 113.04046616203456
rwrist -21.45743309545878
rhand -18.37689102658059 37.17327617178724
rfingers 7.12502
rthumb 7.506407331326236 6.942542239104778
140
root 0.6572041860872406 17.61581302807966 28.555994186918937 3.2483321672677645 -4.687013541278838 -2.492388091999371
lfemur -18.343217956674298 3.916531447288589 -17.393072494933154
ltibia 92.29001053562365
lfoot 2.913417161929214 -6.193360376249002
ltoes -17.953039114811208
rfemur -14.849356453053453 4.519719719528324 29.96553185108398
rtibia 72.34939250174597
rfoot 2.082048810240512 -8.230926008627561
rtoes 10.153812348923264
lowerback 14.232366258068314 1.7205050210101234 1.4832802289291724
upperback -0.7845227307909678 2.4904249279934634 0.14420039081704683
thorax -10.102653335549228 1.1953502407801557 -0.5791078861275045
lowerneck -19.908760187483814 -4.4554134729213 -2.4724479893191167
upperneck 6.698178754891321 -6.249163938751803 6.278727281884494
head 5.58295058061156 -2.5120469417648783 1.718816620631824
lclavicle -1.336747555530077e-15 -2.7589793148678625e-15
lhumerus -39.34663416738125 -9.206808009480293 90.2989992513346
lradius 116.38592470962887
lwrist 31.74209941700173
lhand -24.114995292353388 4.290381996257515
lfingers 7.12502
lthumb 1.8943407898614104 33.54431023624184
rclavicle -1.33674755546956e-15 -2.758979314824566e-15
rhumerus -50.746044151923414 10.858207970855462 -98.11639176174887
rradius 113.1326689041054
rwrist -21.57874996899977
rhand -18.272185027413425 37.479044704948784
rfingers 7.12502
rthumb 7.584303579241276 7.223510043224989
